<svg width="46" height="46" viewBox="0 0 46 46" fill="none" xmlns="http://www.w3.org/2000/svg">
<g clip-path="url(#clip0_80_1162)">
<path d="M22.7668 45.5336C35.3405 45.5336 45.5336 35.3405 45.5336 22.7668C45.5336 10.193 35.3405 0 22.7668 0C10.193 0 0 10.193 0 22.7668C0 35.3405 10.193 45.5336 22.7668 45.5336Z" fill="#0F6EFF"/>
<path d="M21.6136 31.0223L20.4416 29.8386C18.518 27.9197 16.5975 26.0047 14.6802 24.0936C14.5817 23.9951 14.5911 23.9342 14.652 23.8264C15.5699 22.2838 16.5935 20.8067 17.7156 19.4057C18.77 18.0467 19.9241 16.7681 21.1682 15.5803C23.0432 13.7501 25.1752 12.2032 27.4969 10.9885C27.6984 10.8831 27.9094 10.794 28.1063 10.6791C28.1561 10.6445 28.2174 10.6306 28.2773 10.6402C28.3371 10.6498 28.391 10.6822 28.4274 10.7307C28.7087 11.0073 29.0017 11.2722 29.2806 11.5488C31.1558 13.4098 33.0247 15.2709 34.8873 17.132C34.9212 17.1553 34.9445 17.1909 34.9524 17.2313C34.9603 17.2716 34.9521 17.3134 34.9295 17.3477C33.9572 19.3803 32.7267 21.279 31.2683 22.9966C30.1835 24.2658 29.0085 25.4549 27.7524 26.5547C26.0388 28.0512 24.2148 29.4161 22.2956 30.6379C22.0988 30.7644 21.8901 30.8723 21.6886 30.9895L21.6136 31.0223ZM32.8528 17.0781C32.8528 16.5671 32.4942 16.2835 32.1098 16.3749C31.9978 16.4143 31.8951 16.4762 31.808 16.5568C31.7209 16.6375 31.6513 16.7351 31.6035 16.8437C30.8886 18.067 30.0856 19.2366 29.2009 20.3432C28.3332 21.4089 27.3876 22.4086 26.3718 23.3341C26.0389 23.6388 25.692 23.9295 25.3639 24.2412C25.2477 24.3467 25.1778 24.4938 25.1695 24.6505C25.1611 24.8072 25.215 24.9608 25.3193 25.078C25.3662 25.1432 25.4263 25.1977 25.4957 25.2381C25.5651 25.2785 25.6422 25.3038 25.722 25.3124C25.8018 25.3211 25.8826 25.3128 25.959 25.2881C26.0354 25.2635 26.1058 25.2231 26.1655 25.1694C26.3999 24.996 26.6202 24.8178 26.8335 24.6256C28.0024 23.5834 29.09 22.4534 30.0869 21.2457C31.0431 20.0979 31.895 18.8671 32.6325 17.568C32.7151 17.409 32.7886 17.2454 32.8528 17.0781Z" fill="white"/>
<path d="M16.3397 31.7628C16.3022 32.6442 15.967 33.3802 15.2052 33.8443C14.5712 34.2304 13.9127 34.5749 13.2339 34.8756C12.0831 35.3866 10.9111 35.8507 9.74381 36.3312C9.59212 36.3916 9.4352 36.4379 9.27502 36.4695C9.08281 36.5117 8.97968 36.4039 9.04062 36.2187C9.2422 35.6468 9.43206 35.0725 9.67114 34.517C10.1399 33.3966 10.6579 32.2855 11.1689 31.1768C11.3753 30.6911 11.6675 30.2465 12.0315 29.8642C12.4514 29.4495 13.0165 29.2149 13.6066 29.2103C14.1823 29.1595 14.7576 29.3112 15.2333 29.6392C15.5757 29.8773 15.8553 30.1949 16.048 30.5648C16.2407 30.9347 16.3408 31.3458 16.3397 31.7628Z" fill="white"/>
<path d="M17.4343 17.725C17.296 17.8961 17.1601 18.0696 17.0218 18.243C15.8686 19.6826 14.795 21.1842 13.8059 22.7411C13.5926 23.0786 13.5855 23.0739 13.2246 22.9098C12.56 22.616 11.8416 22.4636 11.115 22.4621C10.3454 22.4378 9.576 22.5166 8.82732 22.6965C8.9867 22.4996 9.11562 22.3285 9.25391 22.1691C10.1465 21.0955 11.1884 20.1553 12.3479 19.3775C13.5202 18.6147 14.8273 18.0825 16.199 17.8094C16.5952 17.732 17.0054 17.7203 17.4085 17.6758L17.4343 17.725Z" fill="white"/>
<path d="M27.7289 28.2681C27.7826 28.5711 27.7698 28.8822 27.6914 29.1799C27.3237 31.2188 26.3868 33.1121 24.9888 34.6413C24.3853 35.3371 23.7226 35.9794 23.0082 36.561L22.8582 36.6735C22.8957 36.3734 22.9332 36.0992 22.9637 35.8226C23.0809 34.7655 23.1254 33.7131 22.7574 32.6841C22.701 32.5181 22.6336 32.356 22.5558 32.1989C22.4832 32.0629 22.5207 32.002 22.6379 31.9223C23.47 31.3691 24.3091 30.8277 25.1201 30.2464C25.9311 29.6651 26.7609 29.0017 27.5836 28.3712C27.6281 28.3384 27.6727 28.3126 27.7289 28.2681Z" fill="white"/>
<path d="M29.6439 10.0486C29.6439 10.0486 33.0145 8.64219 36.2328 8.893C36.3554 8.89817 36.4717 8.94922 36.5585 9.03604C36.6453 9.12286 36.6964 9.23911 36.7016 9.36178C36.7288 11.6237 36.3313 13.8706 35.5296 15.9858L29.6439 10.0486Z" fill="white"/>
</g>
<defs>
<clipPath id="clip0_80_1162">
<rect width="46" height="46" fill="white"/>
</clipPath>
</defs>
</svg>
