<svg width="22" height="24" viewBox="0 0 22 24" fill="none" xmlns="http://www.w3.org/2000/svg">
<path d="M20.5999 2.3998H21.3499V1.6498H20.5999V2.3998ZM1.3999 2.3998V1.6498H0.649902V2.3998H1.3999ZM6.1999 0.799805V0.0498047H5.4499V0.799805H6.1999ZM15.7999 0.799805H16.5499V0.0498047H15.7999V0.799805ZM2.9999 23.9498H18.9999V22.4498H2.9999V23.9498ZM21.3499 21.5998V2.3998H19.8499V21.5998H21.3499ZM20.5999 1.6498H16.5999V3.1498H20.5999V1.6498ZM2.1499 21.5998V2.3998H0.649902V21.5998H2.1499ZM1.3999 3.1498H5.3999V1.6498H1.3999V3.1498ZM18.9999 23.9498C20.2978 23.9498 21.3499 22.8977 21.3499 21.5998H19.8499C19.8499 22.0692 19.4694 22.4498 18.9999 22.4498V23.9498ZM2.9999 22.4498C2.53046 22.4498 2.1499 22.0692 2.1499 21.5998H0.649902C0.649902 22.8977 1.70203 23.9498 2.9999 23.9498V22.4498ZM6.1999 1.5498H15.7999V0.0498047H6.1999V1.5498ZM15.0499 0.799805V3.9998H16.5499V0.799805H15.0499ZM14.1999 4.8498H7.7999V6.3498H14.1999V4.8498ZM6.9499 3.9998V0.799805H5.4499V3.9998H6.9499ZM7.7999 4.8498C7.33046 4.8498 6.9499 4.46925 6.9499 3.9998H5.4499C5.4499 5.29767 6.50203 6.3498 7.7999 6.3498V4.8498ZM15.0499 3.9998C15.0499 4.46925 14.6694 4.8498 14.1999 4.8498V6.3498C15.4978 6.3498 16.5499 5.29767 16.5499 3.9998H15.0499Z" fill="#8B8B8B"/>
</svg>
