<svg width="24" height="18" viewBox="0 0 24 18" fill="none" xmlns="http://www.w3.org/2000/svg">
<path fill-rule="evenodd" clip-rule="evenodd" d="M23.1429 9.0002C23.8818 8.7031 23.8816 8.7027 23.8815 8.7024L23.8802 8.69909L23.8774 8.69219L23.8682 8.6699C23.8605 8.65129 23.8496 8.6252 23.8354 8.5923C23.807 8.5264 23.7654 8.4327 23.7104 8.3153C23.6003 8.0806 23.4358 7.75009 23.2134 7.35579C22.7697 6.56866 22.0907 5.5182 21.1477 4.46502C19.2605 2.35743 16.2756 0.200195 12 0.200195C7.72435 0.200195 4.73947 2.35743 2.85233 4.46502C1.90932 5.5182 1.23032 6.56867 0.786564 7.35579C0.564239 7.75009 0.39972 8.0806 0.289641 8.3153C0.234571 8.4327 0.193037 8.5264 0.164625 8.5923C0.150417 8.6252 0.139482 8.65129 0.131769 8.6699L0.122608 8.69219L0.119826 8.69909L0.118882 8.7015C0.118733 8.7018 0.118236 8.7031 0.857223 9.0002L0.118236 8.7031L0 9.0002L0.118236 9.2973L0.857223 9.0002C0.118236 9.2973 0.118087 9.2969 0.118236 9.2973L0.118882 9.29889L0.119826 9.3013L0.122608 9.3082L0.131769 9.33049C0.139482 9.3491 0.150417 9.3752 0.164625 9.4081C0.193037 9.474 0.234571 9.56769 0.289641 9.68509C0.39972 9.9198 0.564239 10.2502 0.786564 10.6446C1.23032 11.4317 1.90932 12.4822 2.85233 13.5354C4.73947 15.643 7.72435 17.8002 12 17.8002C16.2756 17.8002 19.2605 15.643 21.1477 13.5354C22.0907 12.4822 22.7697 11.4317 23.2134 10.6446C23.4358 10.2503 23.6003 9.9198 23.7104 9.68509C23.7654 9.56769 23.807 9.474 23.8354 9.4081C23.8496 9.3752 23.8605 9.3491 23.8682 9.33049L23.8774 9.3082L23.8802 9.3013L23.8811 9.29889C23.8813 9.29859 23.8818 9.2972 23.1429 9.0002L23.8818 9.2973L24 9.0002L23.8815 8.7024L23.1429 9.0002ZM12.0001 5.0002C9.80224 5.0002 8.02053 6.79106 8.02053 9.0002C8.02053 11.2093 9.80224 13.0002 12.0001 13.0002C14.198 13.0002 15.9797 11.2093 15.9797 9.0002C15.9797 6.79106 14.198 5.0002 12.0001 5.0002Z" fill="#0F6EFF"/>
</svg>
