<svg width="251" height="37" viewBox="0 0 251 37" fill="none" xmlns="http://www.w3.org/2000/svg">
<path d="M0.121017 0.639648H250.819V34.5086C250.819 35.1049 250.485 35.6768 249.891 36.0985C249.298 36.5202 248.492 36.7571 247.653 36.7571H3.28692C2.44727 36.7571 1.64201 36.5202 1.04829 36.0985C0.454567 35.6768 0.121017 35.1049 0.121017 34.5086L0.121017 0.639648Z" fill="#F5F5F5"/>
<path d="M222.44 6.74561H166.89C165.884 6.74561 165.069 7.56104 165.069 8.56693V28.6015C165.069 29.6073 165.884 30.4228 166.89 30.4228H222.44C223.446 30.4228 224.262 29.6073 224.262 28.6015V8.56693C224.262 7.56104 223.446 6.74561 222.44 6.74561Z" fill="#F6F7F9"/>
<path d="M222.44 7.20117H166.89C166.136 7.20117 165.524 7.81275 165.524 8.56716V28.6017C165.524 29.3561 166.136 29.9677 166.89 29.9677H222.44C223.195 29.9677 223.806 29.3561 223.806 28.6017V8.56716C223.806 7.81275 223.195 7.20117 222.44 7.20117Z" stroke="#CED0D4"/>
<path d="M194.06 15.07H195.31V21.13H198.94V22.21H194.06V15.07ZM199.672 15.07H200.812V16.15H199.672V15.07ZM199.672 17.04H200.812V22.21H199.672V17.04ZM202.084 15.07H203.224V19.13L205.284 17.04H206.684L204.704 18.94L206.874 22.21H205.484L203.904 19.7L203.224 20.36V22.21H202.084V15.07ZM210.975 19.17C210.962 18.99 210.922 18.8166 210.855 18.65C210.795 18.4833 210.709 18.34 210.595 18.22C210.489 18.0933 210.355 17.9933 210.195 17.92C210.042 17.84 209.869 17.8 209.675 17.8C209.475 17.8 209.292 17.8366 209.125 17.91C208.965 17.9766 208.825 18.0733 208.705 18.2C208.592 18.32 208.499 18.4633 208.425 18.63C208.359 18.7966 208.322 18.9766 208.315 19.17H210.975ZM208.315 19.92C208.315 20.12 208.342 20.3133 208.395 20.5C208.455 20.6866 208.542 20.85 208.655 20.99C208.769 21.13 208.912 21.2433 209.085 21.33C209.259 21.41 209.465 21.45 209.705 21.45C210.039 21.45 210.305 21.38 210.505 21.24C210.712 21.0933 210.865 20.8766 210.965 20.59H212.045C211.985 20.87 211.882 21.12 211.735 21.34C211.589 21.56 211.412 21.7466 211.205 21.9C210.999 22.0466 210.765 22.1566 210.505 22.23C210.252 22.31 209.985 22.35 209.705 22.35C209.299 22.35 208.939 22.2833 208.625 22.15C208.312 22.0166 208.045 21.83 207.825 21.59C207.612 21.35 207.449 21.0633 207.335 20.73C207.229 20.3966 207.175 20.03 207.175 19.63C207.175 19.2633 207.232 18.9166 207.345 18.59C207.465 18.2566 207.632 17.9666 207.845 17.72C208.065 17.4666 208.329 17.2666 208.635 17.12C208.942 16.9733 209.289 16.9 209.675 16.9C210.082 16.9 210.445 16.9866 210.765 17.16C211.092 17.3266 211.362 17.55 211.575 17.83C211.789 18.11 211.942 18.4333 212.035 18.8C212.135 19.16 212.162 19.5333 212.115 19.92H208.315Z" fill="#4B4F56"/>
<path fill-rule="evenodd" clip-rule="evenodd" d="M185.856 17.0796H183.172C183.242 16.1931 183.242 15.3024 183.172 14.4159C183.088 13.7943 182.813 13.2142 182.384 12.7558C182.236 12.6566 182.057 12.613 181.88 12.6325C181.703 12.652 181.538 12.7334 181.415 12.8624C181.415 12.8624 181.449 14.3002 181.449 14.629C181.269 15.2238 180.938 15.7621 180.488 16.1917C180.291 16.3739 178.989 16.8847 178.699 17.0796V23.2948L184.245 23.2857C185.275 23.2857 185.595 22.0427 184.932 21.9271L184.98 21.785C185.64 21.714 186.175 20.613 185.373 20.3816L185.421 20.2487C186.048 20.1777 186.65 19.1031 185.816 18.8372L185.863 18.7043C186.698 18.5622 187.035 17.2299 186.165 17.2299L185.856 17.0796ZM175.121 17.9675H177.805V24.1828H175.121V17.9675Z" fill="#4B4F56"/>
<path d="M21.0084 14.3137V22.0137H19.7434V16.5247L17.4004 20.3967H17.2464L14.9034 16.5137V22.0137H13.6384V14.3137H15.0024L17.3234 18.1637L19.6554 14.3137H21.0084ZM26.1737 16.5137H27.3617V22.0137H26.1737V21.3097C25.8144 21.8743 25.246 22.1567 24.4687 22.1567C23.838 22.1567 23.3284 21.955 22.9397 21.5517C22.551 21.1483 22.3567 20.5947 22.3567 19.8907V16.5137H23.5447V19.7697C23.5447 20.1803 23.6547 20.4957 23.8747 20.7157C24.0947 20.9357 24.3954 21.0457 24.7767 21.0457C25.1947 21.0457 25.532 20.9173 25.7887 20.6607C26.0454 20.3967 26.1737 19.997 26.1737 19.4617V16.5137ZM33.6129 22.0137H32.1939L29.9389 19.4727V22.0137H28.7509V14.3137H29.9389V18.9447L32.0729 16.5137H33.5249L31.1049 19.2087L33.6129 22.0137ZM37.9042 16.5137H39.0922V22.0137H37.9042V21.3097C37.5448 21.8743 36.9765 22.1567 36.1992 22.1567C35.5685 22.1567 35.0588 21.955 34.6702 21.5517C34.2815 21.1483 34.0872 20.5947 34.0872 19.8907V16.5137H35.2752V19.7697C35.2752 20.1803 35.3852 20.4957 35.6052 20.7157C35.8252 20.9357 36.1258 21.0457 36.5072 21.0457C36.9252 21.0457 37.2625 20.9173 37.5192 20.6607C37.7758 20.3967 37.9042 19.997 37.9042 19.4617V16.5137ZM43.3743 16.3707C44.005 16.3707 44.5147 16.5723 44.9033 16.9757C45.292 17.379 45.4863 17.9327 45.4863 18.6367V22.0137H44.2983V18.7577C44.2983 18.347 44.1883 18.0317 43.9683 17.8117C43.7483 17.5917 43.4477 17.4817 43.0663 17.4817C42.6483 17.4817 42.311 17.6137 42.0543 17.8777C41.7977 18.1343 41.6693 18.5303 41.6693 19.0657V22.0137H40.4813V16.5137H41.6693V17.2177C42.0287 16.653 42.597 16.3707 43.3743 16.3707ZM51.1215 14.3137H52.3095V22.0137H51.1215V21.2217C50.6742 21.845 50.0325 22.1567 49.1965 22.1567C48.4412 22.1567 47.7959 21.878 47.2605 21.3207C46.7252 20.756 46.4575 20.0703 46.4575 19.2637C46.4575 18.4497 46.7252 17.764 47.2605 17.2067C47.7959 16.6493 48.4412 16.3707 49.1965 16.3707C50.0325 16.3707 50.6742 16.6787 51.1215 17.2947V14.3137ZM48.1405 20.5287C48.4705 20.8587 48.8849 21.0237 49.3835 21.0237C49.8822 21.0237 50.2965 20.8587 50.6265 20.5287C50.9565 20.1913 51.1215 19.7697 51.1215 19.2637C51.1215 18.7577 50.9565 18.3397 50.6265 18.0097C50.2965 17.6723 49.8822 17.5037 49.3835 17.5037C48.8849 17.5037 48.4705 17.6723 48.1405 18.0097C47.8105 18.3397 47.6455 18.7577 47.6455 19.2637C47.6455 19.7697 47.8105 20.1913 48.1405 20.5287ZM60.1622 22.1567C59.0036 22.1567 58.0429 21.7753 57.2802 21.0127C56.5176 20.2427 56.1362 19.293 56.1362 18.1637C56.1362 17.0343 56.5176 16.0883 57.2802 15.3257C58.0429 14.5557 59.0036 14.1707 60.1622 14.1707C60.8589 14.1707 61.5006 14.3357 62.0872 14.6657C62.6812 14.9957 63.1432 15.443 63.4732 16.0077L62.3732 16.6457C62.1679 16.2643 61.8672 15.9637 61.4712 15.7437C61.0826 15.5163 60.6462 15.4027 60.1622 15.4027C59.3409 15.4027 58.6736 15.663 58.1602 16.1837C57.6542 16.7043 57.4012 17.3643 57.4012 18.1637C57.4012 18.963 57.6542 19.623 58.1602 20.1437C58.6736 20.6643 59.3409 20.9247 60.1622 20.9247C60.6462 20.9247 61.0862 20.8147 61.4822 20.5947C61.8782 20.3673 62.1752 20.063 62.3732 19.6817L63.4732 20.3087C63.1506 20.8733 62.6922 21.3243 62.0982 21.6617C61.5116 21.9917 60.8662 22.1567 60.1622 22.1567ZM68.7924 16.5137H69.9804V22.0137H68.7924V21.2217C68.3451 21.845 67.7034 22.1567 66.8674 22.1567C66.1121 22.1567 65.4668 21.878 64.9314 21.3207C64.3961 20.756 64.1284 20.0703 64.1284 19.2637C64.1284 18.4497 64.3961 17.764 64.9314 17.2067C65.4668 16.6493 66.1121 16.3707 66.8674 16.3707C67.7034 16.3707 68.3451 16.6787 68.7924 17.2947V16.5137ZM65.8114 20.5287C66.1414 20.8587 66.5558 21.0237 67.0544 21.0237C67.5531 21.0237 67.9674 20.8587 68.2974 20.5287C68.6274 20.1913 68.7924 19.7697 68.7924 19.2637C68.7924 18.7577 68.6274 18.3397 68.2974 18.0097C67.9674 17.6723 67.5531 17.5037 67.0544 17.5037C66.5558 17.5037 66.1414 17.6723 65.8114 18.0097C65.4814 18.3397 65.3164 18.7577 65.3164 19.2637C65.3164 19.7697 65.4814 20.1913 65.8114 20.5287ZM76.2271 22.0137H74.8081L72.5531 19.4727V22.0137H71.3651V14.3137H72.5531V18.9447L74.6871 16.5137H76.1391L73.7191 19.2087L76.2271 22.0137ZM77.5208 19.7697C77.6088 20.1877 77.8105 20.5103 78.1258 20.7377C78.4412 20.9577 78.8262 21.0677 79.2808 21.0677C79.9115 21.0677 80.3845 20.8403 80.6998 20.3857L81.6788 20.9577C81.1362 21.757 80.3332 22.1567 79.2698 22.1567C78.3752 22.1567 77.6528 21.8853 77.1028 21.3427C76.5528 20.7927 76.2778 20.0997 76.2778 19.2637C76.2778 18.4423 76.5492 17.7567 77.0918 17.2067C77.6345 16.6493 78.3312 16.3707 79.1818 16.3707C79.9885 16.3707 80.6485 16.653 81.1618 17.2177C81.6825 17.7823 81.9428 18.468 81.9428 19.2747C81.9428 19.3993 81.9282 19.5643 81.8988 19.7697H77.5208ZM77.5098 18.8017H80.7438C80.6632 18.3543 80.4762 18.017 80.1828 17.7897C79.8968 17.5623 79.5595 17.4487 79.1708 17.4487C78.7308 17.4487 78.3642 17.5697 78.0708 17.8117C77.7775 18.0537 77.5905 18.3837 77.5098 18.8017ZM88.3782 22.1567C87.6375 22.1567 87.0068 21.988 86.4862 21.6507C85.9728 21.3133 85.6135 20.8513 85.4082 20.2647L86.4972 19.6267C86.8052 20.492 87.4432 20.9247 88.4112 20.9247C88.8878 20.9247 89.2435 20.833 89.4782 20.6497C89.7202 20.459 89.8412 20.2133 89.8412 19.9127C89.8412 19.5973 89.7128 19.359 89.4562 19.1977C89.1995 19.029 88.7448 18.8457 88.0922 18.6477C87.7255 18.5377 87.4285 18.435 87.2012 18.3397C86.9738 18.2443 86.7318 18.1123 86.4752 17.9437C86.2258 17.7677 86.0388 17.5513 85.9142 17.2947C85.7895 17.038 85.7272 16.7373 85.7272 16.3927C85.7272 15.7107 85.9692 15.1717 86.4532 14.7757C86.9372 14.3723 87.5202 14.1707 88.2022 14.1707C88.8182 14.1707 89.3572 14.321 89.8192 14.6217C90.2812 14.9223 90.6368 15.3367 90.8862 15.8647L89.8192 16.4807C89.4965 15.762 88.9575 15.4027 88.2022 15.4027C87.8355 15.4027 87.5422 15.4907 87.3222 15.6667C87.1022 15.8353 86.9922 16.0663 86.9922 16.3597C86.9922 16.6457 87.1022 16.873 87.3222 17.0417C87.5495 17.203 87.9565 17.3753 88.5432 17.5587C88.8365 17.654 89.0492 17.7273 89.1812 17.7787C89.3205 17.8227 89.5112 17.896 89.7532 17.9987C90.0025 18.1013 90.1895 18.204 90.3142 18.3067C90.4388 18.4093 90.5708 18.5377 90.7102 18.6917C90.8568 18.8457 90.9595 19.0217 91.0182 19.2197C91.0768 19.4177 91.1062 19.6413 91.1062 19.8907C91.1062 20.5873 90.8532 21.141 90.3472 21.5517C89.8485 21.955 89.1922 22.1567 88.3782 22.1567ZM95.0228 16.3707C95.6534 16.3707 96.1631 16.5723 96.5518 16.9757C96.9404 17.379 97.1348 17.9327 97.1348 18.6367V22.0137H95.9468V18.7577C95.9468 18.347 95.8368 18.0317 95.6168 17.8117C95.3968 17.5917 95.0961 17.4817 94.7148 17.4817C94.2968 17.4817 93.9594 17.6137 93.7028 17.8777C93.4461 18.1343 93.3178 18.5303 93.3178 19.0657V22.0137H92.1298V14.3137H93.3178V17.2177C93.6771 16.653 94.2454 16.3707 95.0228 16.3707ZM101.01 22.1567C100.203 22.1567 99.5176 21.878 98.953 21.3207C98.3883 20.7633 98.106 20.0777 98.106 19.2637C98.106 18.4497 98.3883 17.764 98.953 17.2067C99.5176 16.6493 100.203 16.3707 101.01 16.3707C101.824 16.3707 102.51 16.6493 103.067 17.2067C103.632 17.764 103.914 18.4497 103.914 19.2637C103.914 20.0777 103.632 20.7633 103.067 21.3207C102.51 21.878 101.824 22.1567 101.01 22.1567ZM99.789 20.5067C100.119 20.8367 100.526 21.0017 101.01 21.0017C101.494 21.0017 101.901 20.8367 102.231 20.5067C102.561 20.1767 102.726 19.7623 102.726 19.2637C102.726 18.765 102.561 18.3507 102.231 18.0207C101.901 17.6907 101.494 17.5257 101.01 17.5257C100.526 17.5257 100.119 17.6907 99.789 18.0207C99.459 18.3507 99.294 18.765 99.294 19.2637C99.294 19.7623 99.459 20.1767 99.789 20.5067ZM108.101 16.3707C108.857 16.3707 109.502 16.653 110.037 17.2177C110.573 17.775 110.84 18.457 110.84 19.2637C110.84 20.0777 110.573 20.7633 110.037 21.3207C109.502 21.878 108.857 22.1567 108.101 22.1567C107.265 22.1567 106.624 21.8487 106.176 21.2327V24.2137H104.988V16.5137H106.176V17.3057C106.624 16.6823 107.265 16.3707 108.101 16.3707ZM106.671 20.5287C107.001 20.8587 107.416 21.0237 107.914 21.0237C108.413 21.0237 108.827 20.8587 109.157 20.5287C109.487 20.1913 109.652 19.7697 109.652 19.2637C109.652 18.7577 109.487 18.3397 109.157 18.0097C108.827 17.6723 108.413 17.5037 107.914 17.5037C107.416 17.5037 107.001 17.6723 106.671 18.0097C106.341 18.3397 106.176 18.7577 106.176 19.2637C106.176 19.7697 106.341 20.1913 106.671 20.5287Z" fill="#2B23A5"/>
</svg>
